<svg width="12" height="14" viewBox="0 0 12 14" fill="none" xmlns="http://www.w3.org/2000/svg">
<path d="M3.85714 4.00021C3.85714 2.81628 4.81607 1.85735 6 1.85735C6.85446 1.85735 7.59107 2.35557 7.93661 3.08146C8.14018 3.51003 8.65179 3.69217 9.07768 3.4886C9.50357 3.28503 9.68839 2.77342 9.48482 2.34753C8.86607 1.04575 7.54018 0.143066 6 0.143066C3.87054 0.143066 2.14286 1.87074 2.14286 4.00021V5.28592H1.71429C0.76875 5.28592 0 6.05467 0 7.00021V12.1431C0 13.0886 0.76875 13.8574 1.71429 13.8574H10.2857C11.2312 13.8574 12 13.0886 12 12.1431V7.00021C12 6.05467 11.2312 5.28592 10.2857 5.28592H3.85714V4.00021Z" fill="#9CA3AF"/>
</svg>
